<svg width="10" height="10" viewBox="0 0 18 18" fill="none" xmlns="http://www.w3.org/2000/svg">
<path d="M13.9095 0.651093L8.93769 5.62294L3.96584 0.651093C3.35576 0.0410058 2.36622 0.0410058 1.75613 0.651093L0.65128 1.75595C0.0411929 2.36603 0.0411929 3.35557 0.65128 3.96566L5.62312 8.9375L0.65128 13.9093C0.0411929 14.5194 0.0411929 15.509 0.65128 16.1191L1.75613 17.2239C2.36622 17.834 3.35576 17.834 3.96584 17.2239L8.93769 12.2521L13.9095 17.2239C14.5196 17.834 15.5092 17.834 16.1192 17.2239L17.2241 16.1191C17.8342 15.509 17.8342 14.5194 17.2241 13.9093L12.2523 8.9375L17.2241 3.96566C17.8342 3.35557 17.8342 2.36603 17.2241 1.75595L16.1192 0.651093C15.5092 0.0410058 14.5196 0.0410058 13.9095 0.651093Z" fill="white"/>
</svg>
